<svg width="96" height="96" viewBox="0 0 96 96" fill="none" xmlns="http://www.w3.org/2000/svg">
<g clip-path="url(#clip0_11724_1776)">
<rect width="96" height="96" rx="20" fill="#D5FB06"/>
<g clip-path="url(#clip1_11724_1776)">
<path d="M68.8709 39.7778C71.0306 36.0414 69.7629 31.2475 66.0069 29.0856C62.2509 26.9236 57.4385 28.2161 55.2788 31.9525L41.2172 56.2274C39.0575 59.9638 40.3251 64.7577 44.0811 66.9197C47.8372 69.0816 52.6496 67.7891 54.8093 64.0527L68.8709 39.7778Z" fill="#333333"/>
<path d="M41.7337 35.9004C41.7337 31.4825 38.0481 27.9341 33.5878 28.0986C29.5736 28.2396 26.2871 31.459 26.0523 35.4539C25.9819 36.9579 26.3105 38.3678 26.9913 39.5898C27.0852 39.8013 27.1791 40.0363 27.32 40.2478L33.893 51.4335L40.466 40.2478C40.5834 40.0598 40.6773 39.8483 40.7712 39.6603C41.3816 38.5558 41.7337 37.2634 41.7337 35.9004Z" fill="#333333"/>
</g>
</g>
<defs>
<clipPath id="clip0_11724_1776">
<rect width="96" height="96" fill="white"/>
</clipPath>
<clipPath id="clip1_11724_1776">
<rect width="43.875" height="39.9021" fill="white" transform="translate(26.0625 28.049)"/>
</clipPath>
</defs>
</svg>
